# AST/ASF file generated using VICON BodyLanguage
# -----------------------------------------------
:version 1.10
:name VICON
:units
  mass 1.0
  length 0.45
  angle deg
:documentation
   .ast/.asf automatically generated from VICON data using
   VICON BodyBuilder and BodyLanguage model FoxedUp or BRILLIANT.MOD
:root
   order TX TY TZ RX RY RZ
   axis XYZ
   position 0 0 0  
   orientation 0 0 0 
:bonedata
  begin
     id 1 
     name lhipjoint
     direction 0.78388 -0.462562 0.414208 
     length 3.01181 
     axis 0 0 0  XYZ
  end
  begin
     id 2 
     name lfemur
     direction 0.34202 -0.939693 0  
     length 6.04673  
     axis 0 0 20  XYZ
    dof rx ry rz
    limits (-160.0 20.0)
           (-70.0 70.0)
           (-60.0 70.0)
  end
  begin
     id 3 
     name ltibia
     direction 0.34202 -0.939693 0   
     length 7.211   
     axis 0 0 20   XYZ
    dof rx
    limits (-10.0 170.0)
  end
  begin
     id 4 
     name lfoot
     direction 0.121887 -0.334882 0.934344   
     length 2.13567   
     axis -90 7.62852e-016 20   XYZ
    dof rx rz
    limits (-45.0 90.0)
           (-70.0 20.0)
  end
  begin
     id 5 
     name ltoes
     direction 1.53555e-011 -4.2179e-011 1   
     length 1.05957   
     axis -90 7.62852e-016 20   XYZ
    dof rx
    limits (-90.0 20.0)
  end
  begin
     id 6 
     name rhipjoint
     direction -0.769387 -0.475875 0.426129   
     length 2.92756  
     axis 0 0 0  XYZ 
  end
  begin
     id 7 
     name rfemur
     direction -0.34202 -0.939693 0   
     length 6.35468   
     axis 0 0 -20   XYZ
    dof rx ry rz
    limits (-160.0 20.0)
           (-70.0 70.0)
           (-70.0 60.0)
  end
  begin
     id 8 
     name rtibia
     direction -0.34202 -0.939693 0   
     length 7.37886   
     axis 0 0 -20   XYZ
    dof rx
    limits (-10.0 170.0)
 end
 begin
     id 9 
     name rfoot
     direction -0.101763 -0.279592 0.954711   
     length 2.21478  
     axis -90 -7.62852e-016 -20   XYZ
    dof rx rz
    limits (-45.0 90.0)
           (-20.0 70.0)
  end
  begin
     id 10 
     name rtoes
     direction -1.53494e-011 -4.21851e-011 1   
     length 1.10506   
     axis -90 -7.62852e-016 -20   XYZ
    dof rx
    limits (-90.0 20.0)
  end
  begin
     id 11 
     name lowerback
     direction 0.00747405 0.999267 0.0375481   
     length 2.13259   
     axis 0 0 0   XYZ
    dof rx ry rz
    limits (-20.0 45.0)
           (-30.0 30.0)
           (-30.0 30.0)
  end
  begin
     id 12 
     name upperback
     direction 0.00661626 0.996177 0.0871029   
     length 2.10528   
     axis 0 0 0   XYZ
    dof rx ry rz
    limits (-20.0 45.0)
           (-30.0 30.0)
           (-30.0 30.0)
  end
  begin
     id 13 
     name thorax
     direction 0.00320659 0.997679 0.0680167   
     length 2.11338   
     axis 0 0 0   XYZ
    dof rx ry rz
    limits (-20.0 45.0)
           (-30.0 30.0)
           (-30.0 30.0)
  end
  begin
     id 14 
     name lowerneck
     direction 0.0374841 0.973033 0.227602   
     length 1.42765   
     axis 0 0 0   XYZ
    dof rx ry rz
    limits (-20.0 45.0)
           (-30.0 30.0)
           (-30.0 30.0)
  end
  begin
     id 15 
     name upperneck
     direction 0.00481585 0.989155 -0.146795   
     length 1.47593   
     axis 0 0 0   XYZ
    dof rx ry rz
    limits (-20.0 45.0)
           (-30.0 30.0)
           (-30.0 30.0)
  end
  begin
     id 16
     name head
     direction -0.00292522 0.997206 -0.0746423  
     length 1.48116  
     axis 0 0 0   XYZ
    dof rx ry rz
    limits (-20.0 45.0)
           (-30.0 30.0)
           (-30.0 30.0)
  end
  begin
     id 17 
     name lclavicle
     direction 0.951444 0.305606 0.0368784  
     length 3.01855  
     axis 0 0 0   XYZ
    dof ry rz
    limits (-20.0 10.0)
           (0.0 20.0)
  end
  begin
     id 18 
     name lhumerus
     direction 1 -4.48977e-011 2.61664e-027   
     length 5.52731   
     axis 180 -30 -90   XYZ
    dof rx ry rz
    limits (-60.0 90.0)
           (-90.0 90.0)
           (-90.0 90.0)
  end
  begin
     id 19
     name lradius
     direction 1 -4.48944e-011 8.22157e-027   
     length 3.11059   
     axis 180 -30 -90   XYZ
    dof rx
    limits (-10.0 170.0)
  end
  begin
     id 20
     name lwrist
     direction 1 -4.48976e-011 1.5779e-026   
     length 1.5553   
     axis -1.15221e-014 90 90   XYZ
    dof ry
    limits (-180.0 0.0)
 end
  begin
     id 21 
     name lhand
     direction 1 -4.49025e-011 3.1558e-026   
     length 0.419626   
     axis -2.01367e-014 90 90   XYZ
    dof rx rz
    limits (-90.0 90.0)
           (-45.0 45.0)
  end
  begin
     id 22 
     name lfingers
     direction 1 -4.4904e-011 6.31161e-026   
     length 0.338313   
     axis -4.02734e-014 90 90   XYZ
    dof rx
    limits (0.0 90.0)
  end
  begin
     id 23
     name lthumb
     direction 0.707107 -6.35004e-011 0.707107   
     length 0.485752   
     axis -90 45 2.85299e-015   XYZ
    dof rx rz
    limits (-45.0 45.0)
           (-45.0 45.0)
  end
  begin
     id 24 
     name rclavicle
     direction -0.968876 0.223791 0.105816   
     length 3.04177  
     axis 0 0 0   XYZ 
    dof ry rz
    limits (-10.0 20.0)
           (-20.0 0.0)
  end
  begin
     id 25 
     name rhumerus
     direction -1 -4.48962e-011 -1.01384e-027  
     length 5.25396   
     axis 180 30 90   XYZ
    dof rx ry rz
    limits (-90.0 60.0)
           (-90.0 90.0)
           (-90.0 90.0)
  end
  begin
     id 26 
     name rradius
     direction -1 -4.48955e-011 8.88542e-027   
     length 3.10567   
     axis 180 30 90   XYZ
    dof rx
    limits (-10.0 170.0)
  end
  begin
     id 27 
     name rwrist
     direction -1 -4.48994e-011 1.5779e-026   
     length 1.55283   
     axis -1.15221e-014 -90 -90   XYZ
    dof ry
    limits (-180.0 0.0)
  end
  begin
     id 28
     name rhand
     direction -1 -4.48891e-011 3.1558e-026   
     length 0.498676   
     axis -2.01367e-014 -90 -90   XYZ
    dof rx rz
    limits (-90.0 90.0)
           (-45.0 45.0)
  end
  begin
     id 29
     name rfingers
     direction -1 -4.48972e-011 6.31161e-026   
     length 0.402045   
     axis -4.02734e-014 -90 -90   XYZ
    dof rx
    limits (0.0 90.0)
  end
  begin
     id 30
     name rthumb
     direction -0.707107 -6.34849e-011 0.707107   
     length 0.577259   
     axis -90 -45 -2.85299e-015   XYZ
    dof rx rz
    limits (-45.0 45.0)
           (-45.0 45.0)
  end
:hierarchy
  begin
    root lhipjoint rhipjoint lowerback
    lhipjoint lfemur
    lfemur ltibia
    ltibia lfoot
    lfoot ltoes
    rhipjoint rfemur
    rfemur rtibia
    rtibia rfoot
    rfoot rtoes
    lowerback upperback
    upperback thorax
    thorax lowerneck lclavicle rclavicle
    lowerneck upperneck
    upperneck head
    lclavicle lhumerus
    lhumerus lradius
    lradius lwrist
    lwrist lhand lthumb
    lhand lfingers
    rclavicle rhumerus
    rhumerus rradius
    rradius rwrist
    rwrist rhand rthumb
    rhand rfingers
  end

#!OML:ASF H:\Pregnant\Project 1\Capture day 1\Session 1\femalepreg.ASF
:FULLY-SPECIFIED
:DEGREES
1
root -3.0458 15.1729 32.7072 -162.911 -22.1753 -174.509
lowerback -18.2583 0.411786 10.3607
upperback -3.42658 -3.13711 7.37816
thorax 6.48648 -1.85945 1.33073
lowerneck -19.0764 4.83323 6.03265
upperneck 38.7235 1.39293 1.4162
head 17.6126 0.7218 -0.434581
rclavicle -3.24019e-014 1.59028e-014
rhumerus -23.1161 13.5169 -72.9141
rradius 24.5933
rwrist -7.54528
rhand -19.6554 -20.4412
rfingers 7.12502
rthumb 6.67251 -50.3161
lclavicle -3.24019e-014 1.59028e-014
lhumerus -39.1717 -34.0082 102.28
lradius 37.4514
lwrist 31.1992
lhand -24.5315 -3.74133
lfingers 7.12502
lthumb 1.96405 26.2294
rfemur -39.7186 11.4657 30.3833
rtibia 37.428
rfoot -14.2762 -7.55734
rtoes -6.45036
lfemur -36.6835 -4.12661 -17.8837
ltibia 63.8239
lfoot 6.84404 -9.72986
ltoes -24.0163
2
root -3.07541 15.1637 32.6346 -163.024 -21.9851 -174.496
lowerback -18.1562 0.266827 10.2082
upperback -3.27224 -3.31924 7.56925
thorax 6.61351 -1.9462 1.58171
lowerneck -19.13 4.86595 5.97715
upperneck 38.7774 1.41055 1.48618
head 17.6555 0.728039 -0.389438
rclavicle 1.98785e-014 -6.99722e-014
rhumerus -22.3919 11.808 -72.0437
rradius 23.6695
rwrist -5.65679
rhand -20.988 -20.8326
rfingers 7.12502
rthumb 5.38589 -50.7441
lclavicle 1.98785e-014 -6.99722e-014
lhumerus -38.2907 -33.681 101.717
lradius 37.0943
lwrist 31.2042
lhand -24.5262 -3.60046
lfingers 7.12502
lthumb 1.96914 26.3702
rfemur -39.2868 11.5587 30.4717
rtibia 37.565
rfoot -14.6063 -7.75853
rtoes -7.1112
lfemur -37.8943 -4.16944 -17.7881
ltibia 64.5794
lfoot 5.40554 -8.88458
ltoes -24.9331
3
root -3.10422 15.1515 32.5603 -163.151 -21.7933 -174.503
lowerback -18.0442 0.181371 10.1315
upperback -3.21308 -3.39939 7.58813
thorax 6.61915 -1.98208 1.62808
lowerneck -18.7962 4.90602 6.13488
upperneck 38.7559 1.31459 1.65081
head 17.5621 0.721292 -0.368803
rclavicle 2.64384e-014 -2.70347e-014
rhumerus -22.0619 9.89447 -71.4686
rradius 22.8498
rwrist -3.84792
rhand -22.4439 -21.3652
rfingers 7.12502
rthumb 3.98008 -51.3078
lclavicle 2.64384e-014 -2.70347e-014
lhumerus -37.7558 -33.5775 101.206
lradius 36.6921
lwrist 31.3071
lhand -24.6127 -3.71012
lfingers 7.12502
lthumb 1.88564 26.2613
rfemur -38.9107 11.6413 30.5339
rtibia 37.7333
rfoot -14.9182 -7.83551
rtoes -7.2519
lfemur -38.805 -4.26186 -17.6893
ltibia 65.027
lfoot 3.98474 -7.88296
ltoes -25.3539
4
root -3.13468 15.154 32.4829 -163.176 -21.6047 -174.566
lowerback -18.0268 0.0529177 9.94231
upperback -3.10752 -3.5431 7.67042
thorax 6.73612 -2.048 1.78875
lowerneck -18.736 4.93431 6.05453
upperneck 38.7985 1.26181 1.8741
head 17.5673 0.711828 -0.266199
rclavicle -2.92213e-014 -1.36764e-013
rhumerus -21.5827 7.97913 -70.8215
rradius 22.1887
rwrist -2.18799
rhand -23.4921 -22.3451
rfingers 7.12502
rthumb 2.96782 -52.3042
lclavicle -2.92213e-014 -1.36764e-013
lhumerus -36.9936 -33.226 100.612
lradius 36.283
lwrist 31.6026
lhand -24.6792 -3.89866
lfingers 7.12502
lthumb 1.82141 26.0733
rfemur -38.5879 11.8962 30.4497
rtibia 37.87
rfoot -15.227 -8.03655
rtoes -6.73704
lfemur -39.9308 -4.44405 -17.6256
ltibia 65.3596
lfoot 2.26795 -6.90097
ltoes -26.1323
5
root -3.16467 15.1495 32.407 -163.219 -21.4152 -174.609
lowerback -17.9956 -0.0509357 9.79931
upperback -3.00863 -3.65569 7.7206
thorax 6.83525 -2.09769 1.89666
lowerneck -18.6425 4.95844 6.04091
upperneck 38.8338 1.18006 2.08465
head 17.5622 0.697456 -0.187625
rclavicle -4.37326e-015 -9.70069e-014
rhumerus -21.1704 5.90325 -70.194
rradius 21.505
rwrist -0.404371
rhand -24.7297 -23.122
rfingers 7.12502
rthumb 1.77267 -53.0944
lclavicle -4.37326e-015 -9.70069e-014
lhumerus -36.2892 -32.9598 100.032
lradius 35.8832
lwrist 31.8562
lhand -24.7533 -3.89362
lfingers 7.12502
lthumb 1.74983 26.079
rfemur -38.2673 12.0751 30.4241
rtibia 38.0363
rfoot -15.5483 -8.20126
rtoes -6.59064
lfemur -40.9851 -4.60077 -17.5336
ltibia 65.6032
lfoot 0.813981 -5.82465
ltoes -26.5628
6
root -3.19496 15.1458 32.3306 -163.23 -21.2243 -174.666
lowerback -17.9899 -0.140606 9.6598
upperback -2.91857 -3.74788 7.73882
thorax 6.93708 -2.13616 1.97211
lowerneck -18.565 4.97373 6.01818
upperneck 38.8775 1.06928 2.3271
head 17.5657 0.673906 -0.0986506
rclavicle -7.7526e-015 -9.22361e-014
rhumerus -20.8451 3.73742 -69.6195
rradius 20.9117
rwrist 1.31236
rhand -25.9456 -23.9859
rfingers 7.12502
rthumb 0.59833 -53.9648
lclavicle -7.7526e-015 -9.22361e-014
lhumerus -35.602 -32.7009 99.4408
lradius 35.4829
lwrist 32.1835
lhand -24.8579 -3.88197
lfingers 7.12502
lthumb 1.64884 26.0914
rfemur -37.9597 12.2604 30.3784
rtibia 38.1737
rfoot -15.8596 -8.36072
rtoes -6.41692
lfemur -42.0343 -4.7866 -17.4365
ltibia 65.7043
lfoot -0.614175 -4.69902
ltoes -26.808
7
root -3.2257 15.1426 32.2538 -163.209 -21.0291 -174.734
lowerback -18.0092 -0.220036 9.52159
upperback -2.83854 -3.82605 7.73434
thorax 7.04044 -2.1672 2.02486
lowerneck -18.4992 4.98167 5.98268
upperneck 38.925 0.94049 2.58841
head 17.5743 0.643328 -0.00232923
rclavicle 6.36111e-015 -1.43125e-014
rhumerus -20.6094 1.55995 -69.0968
rradius 20.4167
rwrist 2.87758
rhand -27.1385 -24.8766
rfingers 7.12502
rthumb -0.553867 -54.8556
lclavicle 6.36111e-015 -1.43125e-014
lhumerus -34.9225 -32.4223 98.8422
lradius 35.0834
lwrist 32.5697
lhand -24.9829 -3.77455
lfingers 7.12502
lthumb 1.52809 26.1997
rfemur -37.6881 12.4423 30.3185
rtibia 38.3326
rfoot -16.1893 -8.51649
rtoes -6.2738
lfemur -43.096 -4.99466 -17.3343
ltibia 65.6897
lfoot -2.00547 -3.5473
ltoes -26.8948
8
root -3.25686 15.1389 32.1768 -163.16 -20.825 -174.811
lowerback -18.0466 -0.28346 9.3934
upperback -2.77853 -3.8815 7.7004
thorax 7.12954 -2.18703 2.04487
lowerneck -18.4014 4.98294 5.95642
upperneck 38.9668 0.791895 2.85826
head 17.5725 0.605361 0.0914518
rclavicle -1.64991e-014 -7.31528e-014
rhumerus -20.5059 -0.559326 -68.6425
rradius 20.0412
rwrist 4.17329
rhand -28.323 -25.7237
rfingers 7.12502
rthumb -1.69788 -55.6967
lclavicle -1.64991e-014 -7.31528e-014
lhumerus -34.2825 -32.1423 98.2515
lradius 34.6908
lwrist 33.0062
lhand -25.1396 -3.55575
lfingers 7.12502
lthumb 1.37678 26.4196
rfemur -37.4415 12.6168 30.2507
rtibia 38.4973
rfoot -16.5258 -8.66677
rtoes -6.22409
lfemur -44.1462 -5.21565 -17.2244
ltibia 65.535
lfoot -3.31148 -2.39522
ltoes -26.7723
9
root -3.28859 15.1352 32.0999 -163.082 -20.5969 -174.895
lowerback -18.0769 -0.345409 9.24755
upperback -2.77518 -3.92931 7.66965
thorax 7.15436 -2.20934 2.07998
lowerneck -18.1773 4.98676 5.90258
upperneck 39.0009 0.65567 3.13029
head 17.5337 0.562433 0.19034
rclavicle 4.37326e-015 4.77083e-015
rhumerus -20.5826 -2.41922 -68.2446
rradius 19.83
rwrist 5.07497
rhand -29.4477 -26.5339
rfingers 7.12502
rthumb -2.78413 -56.4954
lclavicle 4.37326e-015 4.77083e-015
lhumerus -33.7457 -31.7711 97.7273
lradius 34.3062
lwrist 33.4549
lhand -25.3613 -3.31478
lfingers 7.12502
lthumb 1.16258 26.6618
rfemur -37.2272 12.7881 30.1707
rtibia 38.6693
rfoot -16.8682 -8.78654
rtoes -6.22563
lfemur -45.1792 -5.43922 -17.108
ltibia 65.2393
lfoot -4.51093 -1.26642
ltoes -26.4429
10
root -3.32078 15.1313 32.0228 -162.979 -20.3422 -174.989
lowerback -18.1082 -0.401143 9.08727
upperback -2.79135 -3.96474 7.63445
thorax 7.15928 -2.22755 2.12112
lowerneck -17.9318 4.99093 5.83418
upperneck 39.0299 0.531882 3.39003
head 17.4868 0.519212 0.288013
rclavicle 3.77691e-014 7.4743e-014
rhumerus -20.7847 -3.99955 -67.9138
rradius 19.8046
rwrist 5.49119
rhand -30.4547 -27.3034
rfingers 7.12502
rthumb -3.75653 -57.2501
lclavicle 3.77691e-014 7.4743e-014
lhumerus -33.2374 -31.3468 97.2283
lradius 33.9355
lwrist 33.9044
lhand -25.6435 -2.99084
lfingers 7.12502
lthumb 0.890021 26.987
rfemur -37.0375 12.957 30.0774
rtibia 38.8488
rfoot -17.2124 -8.88317
rtoes -6.31145
lfemur -46.1824 -5.65881 -16.9903
ltibia 64.7995
lfoot -5.55675 -0.169791
ltoes -26.0392
11
root -3.35322 15.1276 31.9455 -162.865 -20.0725 -175.103
lowerback -18.1365 -0.447286 8.91453
upperback -2.80161 -3.97981 7.57831
thorax 7.16846 -2.23419 2.15138
lowerneck -17.732 4.98853 5.76533
upperneck 39.0511 0.405535 3.63936
head 17.4477 0.475358 0.381577
rclavicle -7.11649e-014 2.70347e-014
rhumerus -21.0624 -5.38662 -67.6489
rradius 19.931
rwrist 5.43049
rhand -31.28 -28.0415
rfingers 7.12502
rthumb -4.55351 -57.9726
lclavicle -7.11649e-014 2.70347e-014
lhumerus -32.7123 -30.9261 96.726
lradius 33.5876
lwrist 34.3553
lhand -25.9706 -2.66566
lfingers 7.12502
lthumb 0.574154 27.3133
rfemur -36.856 13.1408 29.957
rtibia 39.0337
rfoot -17.547 -8.98494
rtoes -6.39419
lfemur -47.1279 -5.88691 -16.875
ltibia 64.2127
lfoot -6.43435 0.886923
ltoes -25.588
12
root -3.38583 15.1242 31.868 -162.744 -19.7796 -175.233
lowerback -18.1443 -0.490298 8.71706
upperback -2.8161 -3.98113 7.51822
thorax 7.1632 -2.23498 2.19498
lowerneck -17.5592 4.98551 5.68263
upperneck 39.0671 0.295898 3.86875
head 17.4127 0.434763 0.472486
rclavicle 1.43125e-014 1.60618e-013
rhumerus -21.4046 -6.54369 -67.4404
rradius 20.1858
rwrist 4.93228
rhand -31.9326 -28.7476
rfingers 7.12502
rthumb -5.18363 -58.6642
lclavicle 1.43125e-014 1.60618e-013
lhumerus -32.1972 -30.4692 96.2436
lradius 33.2721
lwrist 34.7801
lhand -26.3608 -2.34833
lfingers 7.12502
lthumb 0.197318 27.6313
rfemur -36.6781 13.3314 29.8159
rtibia 39.219
rfoot -17.8746 -9.08147
rtoes -6.50743
lfemur -48.0085 -6.11232 -16.7626
ltibia 63.4768
lfoot -7.16692 1.91037
ltoes -25.2978
